<svg xmlns="http://www.w3.org/2000/svg" width="1024" height="1024" viewBox="0 0 1024 1024" role="img" aria-labelledby="title desc">
  <title id="title">AM Premier Connect app icon</title>
  <desc id="desc">A dark blue square app icon with a geometric AM monogram.</desc>
  <defs>
    <linearGradient id="bg" x1="144" y1="96" x2="880" y2="928" gradientUnits="userSpaceOnUse">
      <stop offset="0" stop-color="#102f67"/>
      <stop offset=".58" stop-color="#081b3b"/>
      <stop offset="1" stop-color="#041126"/>
    </linearGradient>
    <linearGradient id="mark" x1="205" y1="224" x2="837" y2="808" gradientUnits="userSpaceOnUse">
      <stop offset="0" stop-color="#f7fbff"/>
      <stop offset=".52" stop-color="#dbeaff"/>
      <stop offset="1" stop-color="#8db8ff"/>
    </linearGradient>
    <linearGradient id="accent" x1="230" y1="212" x2="804" y2="792" gradientUnits="userSpaceOnUse">
      <stop offset="0" stop-color="#47bfff"/>
      <stop offset="1" stop-color="#1f6fff"/>
    </linearGradient>
    <filter id="shadow" x="152" y="180" width="720" height="680" filterUnits="userSpaceOnUse" color-interpolation-filters="sRGB">
      <feDropShadow dx="0" dy="26" stdDeviation="28" flood-color="#000818" flood-opacity=".36"/>
    </filter>
  </defs>
  <rect width="1024" height="1024" rx="224" fill="url(#bg)"/>
  <path fill="none" stroke="#47bfff" stroke-opacity=".24" stroke-width="22" d="M197 190h630c4 0 7 3 7 7v630c0 4-3 7-7 7H197c-4 0-7-3-7-7V197c0-4 3-7 7-7z"/>
  <g filter="url(#shadow)">
    <path fill="url(#mark)" d="M186 758 352 266h91l166 492H497l-30-96H327l-30 96H186Zm169-188h84l-42-136-42 136Z"/>
    <path fill="url(#mark)" d="M556 758V266h98l100 202 100-202h98v492H845V472L782 606h-56l-63-134v286H556Z"/>
    <path fill="url(#accent)" d="M327 662h140l30 96h112L443 266h-45l41 304h-84l-29 92Z" opacity=".92"/>
    <path fill="url(#accent)" d="M754 468 854 266h98v492H845V472L782 606h-28V468Z" opacity=".86"/>
  </g>
</svg>
